<svg width="48" height="48" viewBox="0 0 48 48" fill="none" xmlns="http://www.w3.org/2000/svg">
<path d="M16.6093 24.457C16.0175 25.0811 14.0121 24.7522 13.9922 25.8265C14.0702 25.9911 12.619 27.0606 12.2337 27.6209C11.6439 28.3425 10.9438 30.1404 10.5183 31.1352C9.24474 32.9791 10.3591 34.8858 11.243 35.0553C11.9075 35.1827 17.3234 37.1042 17.9964 37.204C19.553 37.4349 28.4383 37.3402 29.9938 37.2438C30.9748 37.1829 31.9892 37.1891 32.9713 37.1891C33.6123 37.1891 34.2442 37.011 34.8837 36.9823C35.5036 36.9545 36.1247 36.6996 36.7198 36.5427C37.1604 36.4265 41.8515 36.2016 42.3006 36.1424C42.5126 36.1144 38.8246 28.2214 38.1658 26.4022C38.1143 25.7456 35.8139 25.1482 35.5996 24.7414C35.406 24.374 35.2606 24.0095 35.0956 23.6267C34.9166 23.2112 34.7756 23.0659 34.341 22.8682C34.0367 22.7297 33.7456 22.5356 33.4147 22.4774C33.3183 22.4604 33.2055 22.4497 33.1206 22.3912C32.9853 22.2979 32.8607 22.1884 32.7174 22.1039C32.4421 21.9417 32.283 21.5243 31.9328 21.4833C31.5368 21.4369 31.1939 21.3324 30.9276 20.9891C30.6423 20.6214 30.7357 20.0057 30.5299 19.5956C30.0958 18.7308 29.7757 18.5358 28.9918 18.5594C28.4115 18.5769 26.9632 18.6807 26.406 18.8331C25.7748 19.0057 24.0985 18.8838 23.4897 19.1246C22.8454 19.3794 22.7968 20.2845 22.1677 20.5647C21.7471 20.752 21.903 21.2083 21.5373 21.4948C21.3026 21.6787 20.9662 21.8535 20.8971 22.1815C20.8108 22.5911 20.4524 22.4869 20.1125 22.463C19.7453 22.4372 19.4126 22.3108 19.0365 22.3108H18.2792C17.9727 22.3108 17.672 22.3721 17.4891 22.6613C17.1223 23.2416 17.0824 23.9579 16.6093 24.457Z" fill="#FFE180"/>
<path d="M33.339 24.4376C34.0336 24.6329 34.6847 24.7794 35.3359 25.0236C36.0739 25.2677 36.6383 25.7072 36.9422 26.5373C37.5934 28.1976 38.2445 29.8578 38.6353 31.6157C38.7221 32.0063 38.8957 32.2016 39.243 32.2505C39.8942 32.397 40.4586 32.69 40.9795 33.1783C41.2834 33.4713 41.6307 33.7154 41.978 34.0084C42.5857 34.5455 42.6726 35.7175 42.0648 36.2546C41.5005 36.7429 40.8927 37.0848 40.2415 37.3777C38.9391 37.9637 37.5065 38.159 36.1174 38.4032C34.7716 38.6473 33.4258 39.0868 32.0366 39.2333C30.2567 39.4775 28.5637 39.4774 26.8706 39.5263C25.2209 39.5751 23.5713 39.6239 21.8782 39.5751C18.8828 39.4774 15.8874 39.331 12.9354 38.745C11.0252 38.3543 9.11511 37.6707 7.20499 37.1335C7.03134 37.0848 6.81428 36.9871 6.64064 36.8894C5.72898 36.3522 5.33827 35.5222 5.59875 34.3991C5.68557 34.0084 5.98945 33.6178 6.29334 33.3247C6.85769 32.7388 7.5957 32.4458 8.3337 32.2993C8.63758 32.2505 8.85464 32.0552 8.98488 31.7622C9.80971 29.9067 10.6779 28.051 11.5028 26.1955C11.7198 25.6584 12.0671 25.3654 12.5447 25.1701C13.5431 24.7306 14.585 24.4376 15.6269 24.2911C16.1045 24.2423 16.3215 23.9981 16.2781 23.461C16.2347 22.3379 17.0161 21.7031 17.9712 22.0937C18.3185 22.2402 18.6224 22.4355 18.9697 22.5332C19.3603 22.6797 19.4472 22.582 19.4472 22.0937C19.4472 21.6543 19.6208 21.3613 19.9681 21.3613C20.7929 21.3613 21.1064 20.2991 21.7575 19.762C22.2785 19.3713 22.9836 19.316 23.6347 19.2183C24.0689 19.1206 24.5926 19.0301 24.8964 18.7371C25.9383 17.8093 27.2179 18.2361 28.4768 18.3826C29.0412 18.4803 29.3451 18.9197 29.3885 19.5545C29.4319 19.8964 29.3885 20.2382 29.3885 20.58C29.3885 20.9706 29.5187 21.0683 29.8226 21.0195C30.0831 20.9706 30.3001 20.873 30.5606 20.873C31.1684 20.7753 31.5591 21.0683 31.6893 21.7519C31.7761 22.1426 31.9498 22.3379 32.3405 22.3379C33.2522 22.3379 33.6429 22.9727 33.339 23.9981C33.3824 24.1935 33.339 24.3399 33.339 24.4376ZM40.2415 35.1804C40.1113 35.0827 39.981 34.985 39.8942 34.8385C39.1562 33.7642 38.5918 32.6411 38.2445 31.3716C37.8538 30.0043 37.4197 28.637 36.9856 27.2697C36.8553 26.9279 36.7251 26.5373 36.508 26.2443C36.3344 25.9025 35.9437 25.8048 35.6832 25.9513C35.3794 26.1466 35.0321 26.2932 34.6848 26.3908C33.7731 26.635 32.818 26.8303 31.9064 27.0745C29.9528 27.6116 27.9559 27.8557 25.959 27.7581C24.7434 27.7092 23.4845 27.6116 22.2689 27.5139C19.9681 27.3186 17.6672 27.1721 15.3664 26.9279C14.7153 26.8792 14.0641 26.5861 13.4129 26.342C13.2827 26.2932 13.1958 26.049 13.1958 25.8537C13.1958 25.7561 13.4129 25.6584 13.5431 25.5607C13.5866 25.5607 13.5866 25.6095 13.6299 25.6095C13.5431 26.1466 13.847 26.2932 14.1943 26.342C14.368 26.3908 14.5416 26.4397 14.7587 26.4885C17.1029 26.9768 19.4906 27.0745 21.8782 27.221C22.9635 27.2697 24.0922 27.3186 25.1776 27.3674C26.5233 27.4163 27.8691 27.5628 29.2149 27.221C30.4738 26.8792 31.7761 26.6838 33.0351 26.3908C33.2522 26.342 33.5126 26.2443 33.7297 26.1466C33.5995 25.9025 33.4692 25.6584 33.339 25.4142C33.0351 25.0236 32.9049 24.5841 33.1219 24.0958C33.1653 23.9493 33.2088 23.8516 33.2522 23.7051C33.339 23.2657 33.2088 22.9239 32.818 22.8262C32.6444 22.7774 32.4707 22.7774 32.2971 22.7285C31.7761 22.7285 31.7328 22.6309 31.6459 22.0937C31.6459 21.9472 31.6025 21.8496 31.6025 21.7031C31.5157 21.2148 31.3855 21.0683 30.9513 21.2148C30.6909 21.2636 30.4304 21.3613 30.2133 21.4101C29.6055 21.4589 29.2582 21.1171 29.3017 20.4335C29.3017 20.2382 29.3017 20.0917 29.3017 19.8964C29.3017 19.0662 28.8241 18.5291 28.1295 18.5779C27.0876 18.6756 26.4224 17.9042 25.641 18.7344C25.4239 18.9785 24.751 19.6413 24.4037 19.6901C24.0564 19.7878 23.2663 19.8782 22.8756 19.927C22.3547 19.9759 21.9106 20.2557 21.6067 20.7929C21.3897 21.1347 21.0869 21.4472 20.6962 21.496C20.1318 21.5448 20.2286 21.9961 20.1418 22.6797C20.0549 23.1192 19.7076 23.3145 19.317 23.168C19.0564 23.0703 18.8394 22.9239 18.6224 22.7774C18.4053 22.6309 18.1882 22.4844 17.9278 22.3867C17.4068 22.1426 16.9293 22.4844 16.9727 23.1192C17.0595 24.2911 16.6254 24.8771 15.6703 25.1701C15.323 25.2677 14.9757 25.5119 14.9323 26.0002C14.9323 26.049 14.8455 26.1466 14.8021 26.1955C14.7587 26.0979 14.6718 26.049 14.6285 25.9513C14.585 25.5119 14.8021 25.2189 15.106 24.9747C15.2796 24.8282 15.4967 24.7306 15.7572 24.5841C14.9757 24.5353 13.8904 24.8282 13.0656 25.2677C12.371 25.6584 11.8935 26.2443 11.633 27.0256C11.3291 27.8557 10.9818 28.6859 10.6345 29.4672C9.98336 30.9809 9.33217 32.5435 8.68099 34.0573C8.63759 34.1549 8.59417 34.3014 8.50734 34.3991C8.46393 34.3991 8.46393 34.3991 8.42053 34.3502C8.42053 34.106 8.42053 33.9107 8.37711 33.5689C8.16005 33.6666 8.02982 33.7642 7.94299 33.8619C7.42205 34.3014 7.42205 34.7409 7.94299 35.0827C8.37711 35.3757 8.89805 35.6198 9.419 35.7663C11.7633 36.4988 14.1509 36.8406 16.5386 37.2801C18.2316 37.573 19.9681 37.9637 21.7046 37.9148C22.7465 37.866 23.7449 37.866 24.7868 37.7684C26.914 37.573 29.0412 37.3777 31.1684 37.0359C33.3824 36.6941 35.5964 36.2546 37.8105 35.8151C38.505 35.9128 39.4167 35.7175 40.2415 35.1804C40.3283 35.1315 40.502 35.1315 40.5888 35.0338C40.719 34.9362 40.8492 34.8385 40.8492 34.692C40.8492 34.5944 40.719 34.3991 40.6322 34.3014C40.3717 34.1549 40.1113 34.0573 39.8508 33.9107C39.8508 33.9596 39.8074 33.9596 39.8074 34.0084C39.8942 34.1549 40.0244 34.3502 40.0678 34.5455C40.1113 34.7409 40.1547 34.985 40.2415 35.1804ZM5.94604 35.7663C6.20651 36.3522 6.68404 36.6453 7.20499 36.8406C8.89805 37.3289 10.5911 38.0125 12.3276 38.3055C14.9323 38.745 17.537 39.038 20.1851 39.2333C22.8767 39.3798 25.5682 39.3797 28.2164 39.331C29.5187 39.331 30.7777 39.1844 32.0801 38.9891C33.5561 38.745 35.0321 38.3543 36.508 38.0613C37.984 37.7684 39.4601 37.5242 40.8059 36.7429C41.1965 36.4988 41.5873 36.2058 41.9346 35.864C42.0214 35.7663 42.0648 35.6198 42.1082 35.4733C42.0648 35.4245 42.0648 35.4245 42.0214 35.3757C41.8911 35.4245 41.7609 35.4733 41.6307 35.571C40.2415 36.4011 38.8523 37.0359 37.2895 37.3777C34.7716 37.866 32.2537 38.3543 29.6924 38.452C27.3916 38.5497 25.0473 38.745 22.7465 38.7938C21.3139 38.8426 19.8379 38.6961 18.4053 38.6473C15.7572 38.5497 13.1958 38.1102 10.6345 37.3289C9.11511 36.8894 7.55228 36.3035 5.94604 35.7663ZM38.9826 32.4947C39.1128 33.1783 39.3298 33.5201 39.764 33.6666C40.1113 33.8131 40.4586 33.9107 40.7624 34.106C40.9361 34.2526 41.1965 34.4967 41.1965 34.692C41.1965 34.8873 40.9795 35.1804 40.8059 35.278C40.1981 35.6198 39.5469 35.9128 38.8523 36.1081C38.0275 36.3522 37.1592 36.4988 36.3344 36.7429C33.6863 37.5242 30.9513 37.9637 28.2164 38.159C26.8706 38.2567 25.4814 38.4032 24.1357 38.4032C22.3992 38.452 20.7061 38.452 18.9697 38.3055C17.8843 38.2079 16.8424 37.866 15.8006 37.7195C13.3261 37.3777 10.895 36.7917 8.46393 36.0593C8.07323 35.9128 7.68252 35.7663 7.33522 35.571C6.81428 35.2291 6.72745 34.692 7.20499 34.2037C7.46546 33.9107 7.76934 33.7154 8.07323 33.5689C8.37711 33.3247 8.59417 33.0806 8.55076 32.6411C7.5957 32.8365 6.77087 33.2271 6.11969 34.0084C5.64216 34.5944 5.77239 35.1804 6.38016 35.5222C6.46699 35.571 6.59722 35.6198 6.72745 35.6686C8.72441 36.5964 10.7648 37.1336 12.8485 37.6707C15.7137 38.4032 18.6224 38.5008 21.5309 38.5008C23.3543 38.5008 25.2209 38.5008 27.0443 38.4032C28.9978 38.3055 30.9079 38.0613 32.8615 37.866C34.4243 37.6707 35.9437 37.4266 37.5065 37.1335C39.0259 36.8406 40.3717 36.0593 41.7175 35.2291C42.1082 34.985 42.1516 34.6432 41.8043 34.3502C41.3268 33.9107 40.8059 33.4713 40.2849 33.0806C39.8942 32.8365 39.4601 32.69 38.9826 32.4947ZM33.3824 24.8282C33.339 24.8771 33.339 24.9259 33.2956 24.9747C33.4258 25.0724 33.5561 25.2189 33.6863 25.3166C33.9034 25.5119 34.1638 25.6584 34.3809 25.9025C34.598 26.0979 35.0755 26.0979 35.2057 25.8048C35.2491 25.7072 35.2057 25.5119 35.1623 25.463C34.6413 25.1212 34.0336 24.9259 33.3824 24.8282Z" fill="#1E5D8A"/>
<path d="M40.2415 35.1804C40.1113 35.0827 39.981 34.9851 39.8942 34.8385C39.1562 33.7643 38.5918 32.6412 38.2445 31.3716C37.8538 30.0043 37.4197 28.637 36.9856 27.2698C36.8553 26.928 36.7251 26.5373 36.508 26.2444C36.3344 25.9026 35.9437 25.8049 35.6832 25.9513C35.3794 26.1467 35.0321 26.2932 34.6848 26.3908C33.7731 26.635 32.818 26.8303 31.9064 27.0745C29.9528 27.6116 27.9559 27.8557 25.959 27.7581C24.7434 27.7093 23.4845 27.6116 22.2689 27.5139C19.9681 27.3186 17.6672 27.1721 15.3664 26.928C14.7153 26.8792 14.0641 26.5862 13.4129 26.342C13.2827 26.2932 13.1958 26.049 13.1958 25.8537C13.1958 25.7561 13.4129 25.6584 13.5431 25.5607C13.5866 25.5607 13.5866 25.6095 13.6299 25.6095C13.5431 26.1467 13.847 26.2932 14.1943 26.342C14.368 26.3908 14.5416 26.4397 14.7587 26.4885C17.1029 26.9768 19.4906 27.0745 21.8782 27.221C22.9635 27.2698 24.0922 27.3186 25.1776 27.3675C26.5233 27.4163 27.8691 27.5628 29.2149 27.221C30.4738 26.8792 31.7761 26.6839 33.0351 26.3908C33.2522 26.342 33.5126 26.2444 33.7297 26.1467C33.5995 25.9026 33.4692 25.6584 33.339 25.4142C33.0351 25.0236 32.9049 24.5841 33.1219 24.0958C33.1653 23.9493 33.2088 23.8516 33.2522 23.7052C33.339 23.2657 33.2088 22.9239 32.818 22.8262C32.6444 22.7774 32.4707 22.7774 32.2971 22.7285C31.7761 22.7285 31.7328 22.6309 31.6459 22.0937C31.6459 21.9472 31.6025 21.8496 31.6025 21.7031C31.5157 21.2148 31.3855 21.0683 30.9513 21.2148C30.6909 21.2636 30.4304 21.3613 30.2133 21.4101C29.6055 21.4589 29.2582 21.1171 29.3017 20.4335C29.3017 20.2382 29.3017 20.0917 29.3017 19.8964C29.3017 19.0662 28.8241 18.5291 28.1295 18.5779C27.0876 18.6756 26.9949 17.6188 25.349 18.5051C24.7476 18.7899 24.7309 19.0576 24.3836 19.1064C24.0363 19.2041 23.524 19.2159 23.1333 19.2647C22.1996 19.0273 21.7914 19.6771 21.4874 20.2143C21.2704 20.5561 20.9286 21.2732 20.5379 21.3221C19.9735 21.3709 20.2286 21.9961 20.1418 22.6797C20.0549 23.1192 19.7076 23.3145 19.317 23.168C19.0564 23.0704 18.8394 22.9239 18.6224 22.7774C18.4053 22.6309 18.1882 22.4844 17.9278 22.3867C17.4068 22.1426 16.9293 22.4844 16.9727 23.1192C17.0595 24.2911 16.6254 24.8771 15.6703 25.1701C15.323 25.2677 14.9757 25.5119 14.9323 26.0002C14.9323 26.049 14.8455 26.1467 14.8021 26.1955C14.7587 26.0979 14.6718 26.049 14.6285 25.9513C14.585 25.5119 14.8021 25.2189 15.106 24.9747C15.2796 24.8283 15.4967 24.7306 15.7572 24.5841C14.9757 24.5353 13.8904 24.8283 13.0656 25.2677C12.371 25.6584 11.8935 26.2444 11.633 27.0257C11.3291 27.8557 10.9818 28.6859 10.6345 29.4672C9.98336 30.9809 9.33217 32.5435 8.68099 34.0573C8.63759 34.1549 8.59417 34.3014 8.50734 34.3991C8.46394 34.3991 8.46393 34.3991 8.42053 34.3502C8.42053 34.1061 8.42053 33.9107 8.37711 33.5689C8.16005 33.6666 8.02982 33.7643 7.94299 33.862C7.42205 34.3014 7.42205 34.7409 7.94299 35.0827C8.37711 35.3757 8.89805 35.6198 9.419 35.7664C11.7633 36.4988 14.1509 36.8406 16.5386 37.2801C18.2316 37.5731 19.9681 37.9637 21.7046 37.9149C22.7465 37.866 23.7449 37.866 24.7868 37.7684C26.914 37.5731 29.0412 37.3777 31.1684 37.0359C33.3824 36.6941 35.5964 36.2546 37.8104 35.8151C38.505 35.9128 39.4167 35.7175 40.2415 35.1804ZM40.2415 35.1804C40.3283 35.1315 40.502 35.1315 40.5888 35.0338C40.719 34.9362 40.8492 34.8385 40.8492 34.692C40.8492 34.5944 40.719 34.3991 40.6322 34.3014C40.3717 34.1549 40.1113 34.0573 39.8508 33.9107C39.8508 33.9596 39.8074 33.9596 39.8074 34.0084C39.8942 34.1549 40.0244 34.3502 40.0678 34.5456C40.1113 34.7409 40.1547 34.9851 40.2415 35.1804ZM33.339 24.4376C34.0336 24.6329 34.6847 24.7794 35.3359 25.0236C36.0739 25.2677 36.6383 25.7072 36.9422 26.5373C37.5934 28.1976 38.2445 29.8578 38.6353 31.6158C38.7221 32.0063 38.8957 32.2017 39.243 32.2505C39.8942 32.397 40.4586 32.69 40.9795 33.1783C41.2834 33.4713 41.6307 33.7154 41.978 34.0084C42.5857 34.5456 42.6726 35.7175 42.0648 36.2546C41.5005 36.7429 40.8927 37.0848 40.2415 37.3777C38.9391 37.9637 37.5065 38.159 36.1174 38.4032C34.7716 38.6473 33.4258 39.0868 32.0366 39.2333C30.2567 39.4775 28.5637 39.4775 26.8706 39.5263C25.2209 39.5751 23.5713 39.6239 21.8782 39.5751C18.8828 39.4775 15.8874 39.331 12.9354 38.745C11.0252 38.3544 9.11511 37.6707 7.20499 37.1336C7.03134 37.0848 6.81428 36.9871 6.64064 36.8895C5.72898 36.3523 5.33827 35.5222 5.59875 34.3991C5.68557 34.0084 5.98945 33.6178 6.29334 33.3248C6.85769 32.7389 7.5957 32.4458 8.3337 32.2994C8.63758 32.2505 8.85464 32.0552 8.98488 31.7622C9.80971 29.9067 10.6779 28.0511 11.5028 26.1955C11.7198 25.6584 12.0671 25.3654 12.5447 25.1701C13.5431 24.7306 14.585 24.4376 15.6269 24.2911C16.1045 24.2423 16.3215 23.9981 16.2781 23.461C16.2347 22.3379 17.0161 21.7031 17.9712 22.0937C18.3185 22.2402 18.6224 22.4356 18.9697 22.5332C19.3603 22.6797 19.4472 22.582 19.4472 22.0937C19.4472 21.6543 19.6208 21.3613 19.9681 21.3613C20.7929 21.3613 20.499 20.719 21.1502 20.1818C21.6711 19.7912 21.6839 19.0216 22.3351 18.924C22.7693 18.8263 23.8482 19.4709 24.8508 18.5412C25.8927 17.6134 27.2179 18.2361 28.4768 18.3826C29.0412 18.4803 29.3451 18.9198 29.3885 19.5545C29.4319 19.8964 29.3885 20.2382 29.3885 20.58C29.3885 20.9706 29.5187 21.0683 29.8226 21.0195C30.0831 20.9706 30.3001 20.873 30.5606 20.873C31.1684 20.7753 31.5591 21.0683 31.6893 21.7519C31.7761 22.1426 31.9498 22.3379 32.3405 22.3379C33.2522 22.3379 33.6429 22.9727 33.339 23.9981C33.3824 24.1935 33.339 24.34 33.339 24.4376ZM5.94604 35.7664C6.20651 36.3523 6.68404 36.6453 7.20499 36.8406C8.89805 37.3289 10.5911 38.0126 12.3276 38.3055C14.9323 38.745 17.537 39.038 20.1851 39.2333C22.8767 39.3798 25.5682 39.3798 28.2164 39.331C29.5187 39.331 30.7777 39.1844 32.0801 38.9891C33.5561 38.745 35.0321 38.3544 36.508 38.0613C37.984 37.7684 39.4601 37.5242 40.8059 36.7429C41.1965 36.4988 41.5873 36.2058 41.9346 35.864C42.0213 35.7664 42.0648 35.6198 42.1082 35.4733C42.0648 35.4245 42.0648 35.4245 42.0214 35.3757C41.8911 35.4245 41.7609 35.4733 41.6307 35.571C40.2415 36.4011 38.8523 37.0359 37.2895 37.3777C34.7716 37.866 32.2537 38.3544 29.6924 38.452C27.3916 38.5497 25.0473 38.745 22.7465 38.7939C21.3139 38.8426 19.8379 38.6962 18.4053 38.6473C15.7572 38.5497 13.1958 38.1102 10.6345 37.3289C9.11511 36.8895 7.55228 36.3035 5.94604 35.7664ZM38.9826 32.4947C39.1128 33.1783 39.3298 33.5201 39.764 33.6666C40.1113 33.8131 40.4586 33.9107 40.7624 34.1061C40.9361 34.2526 41.1965 34.4967 41.1965 34.692C41.1965 34.8874 40.9795 35.1804 40.8059 35.278C40.1981 35.6198 39.5469 35.9128 38.8523 36.1082C38.0275 36.3523 37.1592 36.4988 36.3344 36.7429C33.6863 37.5242 30.9513 37.9637 28.2164 38.159C26.8706 38.2567 25.4814 38.4032 24.1357 38.4032C22.3992 38.452 20.7061 38.452 18.9697 38.3055C17.8843 38.2079 16.8424 37.866 15.8006 37.7195C13.3261 37.3777 10.895 36.7918 8.46393 36.0593C8.07323 35.9128 7.68252 35.7664 7.33522 35.571C6.81428 35.2292 6.72745 34.692 7.20499 34.2038C7.46546 33.9107 7.76934 33.7154 8.07323 33.5689C8.37711 33.3248 8.59417 33.0807 8.55076 32.6412C7.5957 32.8365 6.77087 33.2271 6.11969 34.0084C5.64216 34.5944 5.77239 35.1804 6.38016 35.5222C6.46699 35.571 6.59722 35.6198 6.72745 35.6687C8.72441 36.5964 10.7648 37.1336 12.8485 37.6707C15.7137 38.4032 18.6224 38.5008 21.5309 38.5008C23.3543 38.5008 25.2209 38.5008 27.0443 38.4032C28.9978 38.3055 30.9079 38.0613 32.8615 37.866C34.4243 37.6707 35.9437 37.4266 37.5065 37.1336C39.0259 36.8406 40.3717 36.0593 41.7175 35.2292C42.1082 34.9851 42.1516 34.6432 41.8043 34.3502C41.3268 33.9107 40.8059 33.4713 40.2849 33.0807C39.8942 32.8365 39.4601 32.69 38.9826 32.4947ZM33.3824 24.8283C33.339 24.8771 33.339 24.9259 33.2956 24.9747C33.4258 25.0724 33.5561 25.2189 33.6863 25.3166C33.9034 25.5119 34.1638 25.6584 34.3809 25.9025C34.598 26.0979 35.0755 26.0979 35.2057 25.8049C35.2491 25.7072 35.2057 25.5119 35.1623 25.4631C34.6413 25.1212 34.0336 24.9259 33.3824 24.8283Z" stroke="#1E5D8A" stroke-width="0.339778" stroke-miterlimit="10"/>
<path d="M18.496 26.2458C18.496 26.6852 18.3224 26.8317 18.0619 26.734C17.7581 26.6364 17.4542 26.4411 17.1937 26.2458C17.1069 26.1969 17.0635 26.0016 17.1069 25.904C17.1937 25.6109 17.2805 25.2691 17.4108 24.9761C17.541 24.6832 17.7581 24.6832 17.8883 24.9273C18.1487 25.3668 18.3224 25.8551 18.496 26.2458ZM17.7581 25.1226C17.541 25.4645 17.3673 25.7086 17.4975 26.0016C17.6278 26.2945 17.8448 26.3922 18.2356 26.3434C18.0619 25.904 17.9317 25.5621 17.7581 25.1226Z" fill="#1E5D8A" stroke="#1E5D8A" stroke-width="0.339778" stroke-miterlimit="10"/>
<path d="M25.9145 25.2193C25.7408 25.2681 25.6106 25.2681 25.5238 25.3658C25.3936 25.4634 25.2633 25.6588 25.22 25.8052C25.22 25.9029 25.3936 26.1471 25.4804 26.1471C25.7408 26.1959 26.0448 26.2447 26.3052 26.1959C26.3921 26.1959 26.5657 26.0494 26.6091 25.9518C26.6525 25.8541 26.5223 25.7076 26.4789 25.6099C26.4354 25.5123 26.3486 25.4146 26.3052 25.317C26.6091 25.317 26.8696 25.5123 26.913 25.8541C26.9564 26.1959 26.7394 26.3912 26.5223 26.4401C26.0448 26.5865 25.5238 26.5865 25.0897 26.2447C24.7858 26.0006 24.7424 25.6099 24.916 25.317C25.1765 25.0728 25.654 24.9752 25.9145 25.2193Z" fill="#1E5D8A" stroke="#1E5D8A" stroke-width="0.339778" stroke-miterlimit="10"/>
<path d="M22.4863 25.7563C22.0955 25.7563 21.9219 25.6098 21.9219 25.2679C21.9219 24.8285 22.4428 24.2913 22.8769 24.2913C23.1808 24.2913 23.3111 24.4866 23.3111 24.7796C23.3111 25.3656 22.9638 25.7563 22.4863 25.7563ZM22.1823 25.2679C22.4428 25.3168 22.573 25.3656 22.7033 25.3656C22.8336 25.3168 22.9203 25.1703 23.0072 25.0726C23.0506 25.0238 22.9638 24.7796 22.9638 24.7796C22.8336 24.7796 22.7033 24.7796 22.6165 24.8285C22.4428 24.8773 22.356 25.0238 22.1823 25.2679Z" fill="#1E5D8A" stroke="#1E5D8A" stroke-width="0.339778" stroke-miterlimit="10"/>
<path d="M26.2632 23.2163C26.3934 23.2163 26.4803 23.2163 26.567 23.2651C26.6539 23.3139 26.7407 23.4116 26.7407 23.5093C26.7407 23.6069 26.6539 23.7534 26.6105 23.7534C26.0895 23.8022 25.5251 23.8511 25.0042 23.8511C24.9608 23.8511 24.8305 23.5581 24.874 23.4604C25.0042 23.1186 25.9593 22.9721 26.2632 23.2163C25.9159 23.3139 25.5686 23.4116 25.2213 23.5093C25.2213 23.5581 25.2213 23.6069 25.2213 23.6557C25.5686 23.6557 25.9159 23.6069 26.3066 23.6069C26.3066 23.4116 26.2632 23.3139 26.2632 23.2163Z" fill="#1E5D8A"/>
<path d="M26.2632 23.2163C26.3934 23.2163 26.4803 23.2163 26.567 23.2651C26.6539 23.3139 26.7407 23.4116 26.7407 23.5093C26.7407 23.6069 26.6539 23.7534 26.6105 23.7534C26.0895 23.8022 25.5251 23.8511 25.0042 23.8511C24.9608 23.8511 24.8305 23.5581 24.874 23.4604C25.0042 23.1186 25.9593 22.9721 26.2632 23.2163ZM26.2632 23.2163C25.9159 23.3139 25.5686 23.4116 25.2213 23.5093C25.2213 23.5581 25.2213 23.6069 25.2213 23.6557C25.5686 23.6557 25.9159 23.6069 26.3066 23.6069C26.3066 23.4116 26.2632 23.3139 26.2632 23.2163Z" stroke="#1E5D8A" stroke-width="0.339778" stroke-miterlimit="10"/>
<path d="M29.2545 25.2685C28.994 25.122 28.8638 24.8779 28.9506 24.6826C28.994 24.4872 29.2111 24.2919 29.3848 24.2919C29.8188 24.2431 30.1662 24.4384 30.47 24.8291C30.6871 25.122 30.6871 25.5127 30.47 25.708C30.2529 25.9522 29.8623 25.9033 29.5584 25.6104C29.8623 25.5127 30.4266 25.7569 30.2964 25.0732C30.2529 24.7802 29.6886 24.4872 29.3848 24.5361C29.0375 24.6337 29.3413 24.9755 29.2545 25.2685Z" fill="#1E5D8A" stroke="#1E5D8A" stroke-width="0.339778" stroke-miterlimit="10"/>
<path d="M23.4401 22.1919C23.5704 22.2407 23.744 22.3384 23.8743 22.3872C23.744 22.4849 23.6572 22.729 23.527 22.729C23.1797 22.7779 22.8324 22.7779 22.4851 22.7779C22.3983 22.7779 22.268 22.6314 22.2246 22.4849C22.2246 22.4361 22.3548 22.2407 22.4416 22.1919C22.7456 22.0943 23.0928 21.8989 23.4401 22.1919C23.1797 22.2896 22.9191 22.3384 22.5719 22.4361C23.1362 22.6802 23.3533 22.5826 23.4401 22.1919Z" fill="#1E5D8A"/>
<path d="M23.4401 22.1919C23.5704 22.2407 23.744 22.3384 23.8743 22.3872C23.744 22.4849 23.6572 22.729 23.527 22.729C23.1797 22.7779 22.8324 22.7779 22.4851 22.7779C22.3983 22.7779 22.268 22.6314 22.2246 22.4849C22.2246 22.4361 22.3548 22.2407 22.4416 22.1919C22.7456 22.0943 23.0928 21.8989 23.4401 22.1919ZM23.4401 22.1919C23.1797 22.2896 22.9191 22.3384 22.5719 22.4361C23.1362 22.6802 23.3533 22.5826 23.4401 22.1919Z" stroke="#1E5D8A" stroke-width="0.339778" stroke-miterlimit="10"/>
<path d="M19.7943 25.9537C19.5772 25.856 19.6641 25.7583 19.7943 25.6606C20.0982 25.4165 20.6626 25.4653 20.8797 25.8071C21.0099 26.0024 21.0533 26.2466 20.8797 26.4419C20.6626 26.6861 20.4455 26.7837 20.1416 26.5884C19.8812 26.4908 19.7509 26.2955 19.7943 25.9537C19.9245 26.1001 20.0982 26.2955 20.2718 26.3443C20.4021 26.3931 20.5758 26.2955 20.706 26.2466C20.6191 26.1001 20.5758 25.9048 20.4889 25.9048C20.2285 25.856 20.0114 25.9048 19.7943 25.9537Z" fill="#1E5D8A"/>
<path d="M19.7943 25.9537C19.5772 25.856 19.6641 25.7583 19.7943 25.6606C20.0982 25.4165 20.6626 25.4653 20.8797 25.8071C21.0099 26.0024 21.0533 26.2466 20.8797 26.4419C20.6626 26.6861 20.4455 26.7837 20.1416 26.5884C19.8812 26.4908 19.7509 26.2955 19.7943 25.9537ZM19.7943 25.9537C19.9245 26.1001 20.0982 26.2955 20.2718 26.3443C20.4021 26.3931 20.5758 26.2955 20.706 26.2466C20.6191 26.1001 20.5758 25.9048 20.4889 25.9048C20.2285 25.856 20.0114 25.9048 19.7943 25.9537Z" stroke="#1E5D8A" stroke-width="0.339778" stroke-miterlimit="10"/>
<path d="M27.2625 20.1894C27.1323 20.3359 27.0888 20.4335 26.9153 20.58C27.2625 20.58 27.523 20.58 27.8703 20.58C27.6967 20.4335 27.6098 20.3847 27.523 20.2871C27.523 20.2382 27.523 20.1894 27.523 20.1406C27.6532 20.1406 27.8269 20.1406 27.9571 20.1894C28.044 20.2382 28.1307 20.4335 28.0874 20.5312C28.0005 20.6777 27.8703 20.8242 27.7401 20.8242C27.4796 20.873 27.2191 20.9218 26.9586 20.873C26.8284 20.8242 26.6113 20.58 26.6113 20.4335C26.6982 20.1894 26.9153 20.0917 27.2625 20.1894Z" fill="#1E5D8A" stroke="#1E5D8A" stroke-width="0.339778" stroke-miterlimit="10"/>
<path d="M31.6012 24.3418C31.1671 24.2441 30.9066 24.0488 30.95 23.7558C30.9934 23.414 31.1671 23.2675 31.4275 23.2675C31.7315 23.2675 32.1221 23.6582 32.0353 23.9023C31.9919 24.0976 31.7748 24.1953 31.6012 24.3418ZM31.8617 23.8047C31.6446 23.6582 31.5578 23.6093 31.4275 23.5605C31.3842 23.5605 31.2973 23.707 31.2539 23.7558C31.3407 23.8047 31.4275 23.9023 31.5144 23.9511C31.6012 24 31.688 23.9023 31.8617 23.8047Z" fill="#1E5D8A" stroke="#1E5D8A" stroke-width="0.339778" stroke-miterlimit="10"/>
<path d="M32.9902 15.4034C32.9882 15.1628 32.9429 14.9131 32.9903 14.6822C33.2595 13.3559 33.969 12.2978 35.004 11.4629C35.3776 11.1616 35.644 11.2827 35.6809 11.7604C35.6984 11.98 35.6746 12.2396 35.5712 12.4263C35.3045 12.9082 34.9868 13.3623 34.6832 13.8229C34.4679 14.1498 34.2735 14.5009 34.0106 14.7842C33.7685 15.0449 33.4459 15.2305 33.1593 15.4491C33.1039 15.4346 33.0465 15.419 32.9902 15.4034Z" fill="#1E5D8A"/>
<path d="M19.1815 15.3845C19.0747 15.3102 18.9475 15.2534 18.8625 15.1576C18.0328 14.233 17.2019 13.3093 16.3904 12.3692C16.1361 12.0746 15.9198 11.7408 15.7216 11.4044C15.653 11.2888 15.6402 11.0037 15.6929 10.9764C15.8324 10.9045 16.0284 10.8951 16.1891 10.9283C16.3086 10.9537 16.4354 11.0637 16.51 11.1702C17.3807 12.4176 18.2425 13.6705 19.1032 14.9245C19.1785 15.0342 19.2238 15.1648 19.2835 15.2859C19.249 15.3202 19.2158 15.3524 19.1815 15.3845Z" fill="#1E5D8A"/>
<path d="M25.204 13.0544C25.1765 12.8521 25.1286 12.6809 25.135 12.5112C25.173 11.538 25.2266 10.5651 25.2708 9.59249C25.2816 9.36048 25.3582 9.13315 25.6062 9.16442C25.7712 9.18523 25.9929 9.34824 26.0488 9.50099C26.1411 9.75267 26.1468 10.0478 26.1415 10.3239C26.1326 10.8337 26.1005 11.3447 26.0581 11.8527C26.0026 12.4988 25.9366 12.5824 25.204 13.0544Z" fill="#1E5D8A"/>
</svg>
