<svg width="48" height="48" viewBox="0 0 48 48" fill="none" xmlns="http://www.w3.org/2000/svg">
<path d="M7.19979 13.4399C14.8085 13.8022 15.1114 13.6586 22.8588 13.5898C23.9964 13.5797 21.9397 18.6653 24.2178 19.7052C25.3236 20.21 29.8189 21.1693 32.3716 20.3847C33.3561 20.0821 31.9164 17.9106 33.0511 17.7426C36.7247 19.7406 39.9985 21.8193 40.4609 22.3588C43.4246 25.8164 40.4609 30.2399 40.4609 30.2399L37.4398 31.6799C37.4398 31.6799 36.4798 35.0399 33.5998 34.5599C30.7198 34.0799 31.6798 31.1999 31.6798 31.1999C30.2293 31.5625 22.6104 30.8365 18.2398 31.6799C15.1822 32.2699 16.3198 34.5599 13.9198 34.5599C11.5198 34.5599 11.5748 32.0603 10.0798 31.1999C8.55973 30.325 6.46864 31.088 5.88477 30.9576L7.19979 13.4399Z" fill="#FFE180"/>
<path fill-rule="evenodd" clip-rule="evenodd" d="M40.4232 29.398C40.365 29.5362 40.2573 29.6644 40.0743 29.747C39.3085 30.0931 38.5625 30.2754 37.7811 30.3808C37.496 30.395 37.3003 30.4335 37.1415 30.4791C37.1231 30.4278 37.0989 30.3794 37.0833 30.3281C36.9855 30.019 36.8408 29.7398 36.648 29.4892C36.5657 29.3838 36.4934 29.2712 36.4055 29.1715C36.2168 28.9579 35.9871 28.8041 35.7545 28.6517C35.3631 28.3939 34.9405 28.2671 34.498 28.213L34.247 28.1945L33.9945 28.1988C33.8272 28.2059 33.6584 28.223 33.4911 28.2386C33.4471 28.2429 33.4017 28.2529 33.362 28.2728C33.1053 28.3939 32.843 28.5021 32.6005 28.6503C32.4473 28.7414 32.3055 28.871 32.192 29.0248C32.0303 29.2442 31.8729 29.4749 31.6829 29.6644C31.5396 29.8111 31.4446 29.9791 31.3439 30.1529C31.2617 30.2925 31.1936 30.4349 31.1851 30.6101C31.1851 30.6286 31.1752 30.6457 31.1737 30.6671C30.5852 30.7995 29.8151 30.9847 29.6265 31.0032C28.6678 31.1 27.7715 31.0132 26.8724 30.8935C26.8313 30.8949 26.8043 30.9021 26.7632 30.9021C25.1067 30.9035 21.818 31.392 19.8807 30.5702C19.2581 30.5745 17.3478 30.5047 16.6231 30.4677C16.6118 30.432 16.5976 30.395 16.5862 30.358C16.5721 30.3039 16.5394 30.2526 16.5182 30.1999C16.4756 30.103 16.4359 30.0048 16.4033 29.9051C16.314 29.633 16.175 29.398 15.9566 29.2228C15.9098 29.1886 15.8658 29.1545 15.8318 29.106C15.7438 28.9707 15.619 28.8938 15.4716 28.8668C15.2617 28.8311 15.073 28.7329 14.8873 28.6289C14.5682 28.4523 14.2335 28.4067 13.8832 28.448C13.8477 28.4523 13.8109 28.458 13.7456 28.4679C13.5471 28.4366 13.323 28.4879 13.0975 28.515C12.7061 28.5662 12.3175 28.6716 11.9785 28.9194C11.7857 29.0619 11.6084 29.2228 11.4354 29.398C11.2836 29.549 11.1234 29.6886 10.9901 29.8595C10.9674 29.8851 10.9518 29.915 10.9333 29.9435C9.80163 29.8794 8.18773 29.9036 7.94238 29.4806C7.6162 29.5718 7.20918 29.4792 7.21201 29.0904C7.22194 27.2559 7.12976 25.3203 7.39921 23.5086L7.40063 23.5029C7.39638 23.463 7.38078 23.4416 7.38078 23.3889C7.38078 23.2038 7.38929 23.0129 7.41481 22.8306C7.45452 22.5044 7.46729 22.1783 7.46445 21.8535C7.46303 21.3835 7.47012 20.9178 7.47012 20.4449C7.47012 20.1956 7.4446 19.9464 7.46303 19.6971C7.52118 18.8767 7.59492 18.0564 7.66016 17.2345C7.7254 16.4298 7.81616 15.6251 7.75518 14.8075C7.73391 14.5141 7.81616 14.4144 8.03031 14.3888C8.10973 14.3803 8.20616 14.4059 8.26431 14.3546C8.46286 14.178 8.67275 14.2136 8.86846 14.2991C9.06984 14.386 9.25421 14.3632 9.44992 14.3133C9.64421 14.262 9.84134 14.2108 10.037 14.2065C10.4866 14.1951 10.9433 14.1823 11.3957 14.2236C11.9388 14.2777 12.482 14.319 13.0266 14.2236C13.0932 14.2108 13.1656 14.2207 13.2365 14.2207C13.7215 14.2293 14.2065 14.262 14.6958 14.2108C14.9156 14.1908 15.1383 14.2165 15.3538 14.2364L16.1523 14.3233L16.6557 14.3546L17.1606 14.3831C17.4386 14.3988 17.7151 14.4429 17.9959 14.4273C18.5022 14.3988 19.0057 14.2706 19.5191 14.2962C19.6226 14.2991 20.7784 14.0512 21.3244 14.131C21.5513 14.1652 21.5684 14.1851 21.5613 14.5099C21.5513 14.9001 21.7669 14.987 21.7513 15.3773C21.7158 16.2646 21.9314 15.7105 21.896 16.595C21.8931 16.6805 21.9229 17.3214 21.8804 17.6205C21.8378 17.921 22.0434 18.3982 22.0434 18.4836C22.0434 18.5748 22.1342 19.1345 22.1597 19.2713C22.2406 19.6786 22.2392 19.8994 22.2434 20.17C22.3242 20.2711 22.3342 20.8081 22.4278 20.8964C22.5824 21.0445 22.7596 20.8138 22.9497 20.9292C23.0801 21.0075 23.4035 21.0972 23.4035 21.0972C23.585 21.1756 24.0275 21.1229 24.2402 21.1813C24.4728 21.2454 24.8174 21.1784 25.0897 21.2183C25.3634 21.261 26.1803 21.1271 26.498 21.1485C26.7618 21.1656 27.7985 21.1798 27.9842 21.1813C28.2253 21.1827 28.726 21.2696 28.967 21.2653C29.1599 21.2624 29.7754 21.2382 29.9683 21.2311C30.6831 21.2069 31.1752 21.12 31.9254 21.0445C32.0601 21.0303 32.7564 20.9591 32.8798 20.9491C32.9011 20.9377 32.9039 19.3439 32.9266 19.3354C32.8685 19.3567 32.8458 18.6417 32.8543 18.3327C32.8671 17.8755 33.5875 18.2116 34.0243 18.5848C34.793 19.2428 35.6779 19.5576 36.2211 20.6742C36.5402 21.3265 36.7302 22.1569 36.9741 22.8463C37.0848 23.161 37.5414 24.497 37.6379 24.8246C39.0518 26.2033 41.145 24.6565 41.2713 26.8656C41.3152 27.6176 41.0628 28.7941 40.4232 29.398ZM35.6921 32.0201C35.6623 32.1811 35.6425 32.3435 35.546 32.4802C35.5177 32.5144 35.5035 32.5599 35.4865 32.6027C35.4241 32.7366 35.3489 32.8647 35.2581 32.9801C35.2213 33.0257 35.1816 33.0556 35.122 33.067C35.0397 33.0827 34.9561 33.1097 34.8795 33.1468C34.6753 33.2436 34.464 33.292 34.2455 33.3191C34.1775 33.3291 34.1137 33.3205 34.0513 33.2835C33.9931 33.2493 33.9279 33.2237 33.8641 33.2037C33.6584 33.1439 33.4811 33.03 33.3025 32.9146C33.223 32.8633 33.1507 32.8021 33.1025 32.7166C32.9862 32.5058 32.8898 32.2851 32.8359 32.0472C32.8259 31.9902 32.8274 31.929 32.8302 31.872C32.833 31.7994 32.8486 31.7282 32.8557 31.6569C32.8727 31.4718 32.921 31.298 33.0046 31.1357L33.1351 30.8536L33.1847 30.7611L33.2443 30.6728C33.3152 30.5759 33.7052 30.2967 33.813 30.2554C33.8258 30.2512 33.8343 30.2469 33.847 30.2455C33.9548 30.2298 34.0215 30.1614 34.0583 30.0503C34.247 29.9919 34.4129 30.0048 34.5675 30.1059C34.7774 30.244 34.9858 30.3794 35.1943 30.5189C35.2525 30.556 35.2922 30.6129 35.3262 30.6785C35.3787 30.7881 35.4312 30.9035 35.5063 30.9961C35.59 31.0986 35.6254 31.2097 35.6368 31.3365C35.6581 31.5316 35.6765 31.7267 35.6964 31.9233C35.6978 31.9546 35.6978 31.9888 35.6921 32.0201ZM15.1241 32.4759C15.1184 32.6084 15.1028 32.7294 15.0064 32.832C14.9653 32.8761 14.9454 32.9502 14.9199 33.01C14.8901 33.0727 14.8702 33.1396 14.8376 33.1966C14.6547 33.4986 14.4419 33.7635 14.0846 33.8318C14.0718 33.8347 14.059 33.839 14.0477 33.8447C13.8378 33.9301 13.6222 33.9031 13.4081 33.8788C13.1712 33.8518 12.9713 33.7264 12.7812 33.5854C12.5217 33.3946 12.3402 33.1325 12.2508 32.8021C12.2168 32.6782 12.1899 32.5514 12.1544 32.4261C12.126 32.3249 12.126 32.2252 12.1487 32.1227C12.17 32.0315 12.1941 31.9361 12.2012 31.8421C12.2097 31.7111 12.2508 31.5886 12.2721 31.4618C12.3062 31.2909 12.3927 31.1584 12.509 31.053C12.6437 30.9291 12.7883 30.8123 12.9443 30.724C13.1968 30.5788 13.4747 30.5033 13.8023 30.4605C13.9938 30.4577 14.2165 30.5004 14.4221 30.63C14.4916 30.6713 14.5455 30.724 14.5937 30.7895C14.7752 31.0317 14.9199 31.2966 15.0532 31.5686C15.1028 31.6598 15.1241 31.7552 15.1369 31.862C15.1596 32.0686 15.1312 32.2708 15.1241 32.4759ZM23.68 14.9842C23.6815 14.8659 23.6843 14.752 23.6928 14.6352C23.6999 14.5227 23.7127 14.4073 23.8148 14.3133C24.0473 14.3247 24.2913 14.3333 24.5338 14.3418C24.5636 14.3432 24.5919 14.3404 24.6175 14.3333C24.8344 14.282 24.6898 14.2948 24.9054 14.3418C24.9763 14.3575 25.0472 14.3617 25.1195 14.376C25.4584 14.4515 25.8059 14.3774 26.1491 14.4572C26.3874 14.5156 26.6299 14.5384 26.8724 14.5754C27.0156 14.5967 27.4496 14.6352 27.7474 14.7093C28.3856 14.8674 28.5614 15.2049 28.855 15.3787C28.9018 15.4057 28.9472 15.4385 28.9926 15.4698C29.1117 15.5581 29.2294 15.6536 29.35 15.7362C29.5967 15.9014 29.8804 15.9926 30.1144 16.1848C30.1938 16.2504 30.2888 16.2917 30.3739 16.3472C30.5029 16.4298 30.9851 16.7161 31.3482 16.9497C31.68 17.1619 31.9552 17.4567 32.1296 17.8114C32.1934 17.941 32.2388 18.0635 32.2303 18.1361C32.1807 18.5933 32.2175 19.1602 32.2842 19.6174C32.2984 19.7242 32.2984 19.8339 32.2984 19.9393C32.2984 20.2227 30.8844 20.019 30.8802 20.0732C30.8433 20.0917 30.3271 20.133 30.0931 20.1686C29.9967 20.1828 29.9187 20.1344 29.8577 20.0319C29.8903 19.9891 29.9172 19.935 29.9584 19.9022C30.1569 19.7456 30.242 19.4878 30.3512 19.2812C30.4079 19.1673 30.4533 19.0434 30.4959 18.9238C30.5129 18.8824 30.537 18.8454 30.5497 18.8027C30.5739 18.7073 30.5497 18.619 30.4788 18.5492C30.3852 18.4566 30.2406 18.4438 30.1229 18.5007C30.0321 18.5463 29.9385 18.5976 29.8477 18.6474C29.8095 18.6688 29.7541 18.7144 29.7258 18.75C29.5542 18.9579 29.35 19.1374 29.1954 19.3653C29.1628 19.4166 29.1004 19.4977 29.0578 19.5447C28.8976 19.7171 28.7401 19.8852 28.5544 20.0803C28.509 20.0817 28.4381 20.0945 28.3657 20.0888C28.1601 20.0689 27.5318 19.9806 27.4155 19.9763C27.2071 19.972 27 19.9649 26.7915 19.9592C26.7093 19.9578 26.6256 19.9663 26.5462 19.9606C26.1448 19.925 25.7378 19.9293 25.3393 19.8268C25.2883 19.8154 25.2372 19.8111 25.1862 19.8111C24.9777 19.8139 24.799 19.737 24.6373 19.6074C24.4359 19.445 24.2303 19.2827 24.0289 19.116C23.9793 19.0776 23.9268 19.022 23.9084 18.9622L23.8346 18.7187C23.8006 18.5976 23.7779 18.4723 23.8006 18.3369C23.8375 18.1418 23.8133 17.9481 23.7864 17.7558C23.768 17.6419 23.7495 17.5222 23.7595 17.4083C23.7722 17.2402 23.7637 17.0779 23.7297 16.9141C23.6956 16.7303 23.6843 16.5495 23.6985 16.3614C23.7084 16.2076 23.6871 16.051 23.6815 15.8957C23.6786 15.7974 23.6701 15.702 23.6701 15.6051C23.6701 15.3986 23.68 15.1907 23.68 14.9842ZM37.7343 21.6527C37.886 21.7196 38.0491 21.7353 38.2094 21.7652C38.5299 21.825 38.8532 21.8877 39.1681 21.9803C39.3922 22.0458 39.6205 22.1355 39.7751 22.3492C39.8814 22.4987 40.002 22.6269 40.1424 22.738C40.1991 22.7836 40.2388 22.852 40.2885 22.9104C40.4487 23.0898 40.5395 23.3163 40.6501 23.5256C40.7281 23.6738 40.8189 23.829 40.8103 24.027C40.7735 24.0327 40.7423 24.0441 40.7054 24.0441C40.5707 24.0441 40.436 24.0412 40.3012 24.037C40.2374 24.037 40.1707 24.037 40.1098 24.0298C39.9367 24.017 39.7666 23.9985 39.595 23.9843C39.4985 23.9743 39.3964 23.97 39.2986 23.9629C39.1411 23.9501 39.0206 23.8732 38.944 23.725C38.8646 23.5726 38.7866 23.4188 38.7143 23.2593C38.6363 23.0827 38.554 22.9118 38.4349 22.7608L37.8435 22.0031L37.7641 21.8977C37.7144 21.825 37.6705 21.7467 37.6379 21.6527C37.6861 21.6527 37.7116 21.6442 37.7343 21.6527ZM43.1291 29.371L43.0922 29.0248L43.0624 28.8226L43.0284 28.6232C42.9589 28.2415 42.8852 27.8555 42.8171 27.4752C42.7774 27.2274 42.7022 27.0023 42.5249 26.8286C42.4257 26.7303 42.3775 26.6135 42.3817 26.4654C42.3817 26.4098 42.3633 24.9243 42.3434 24.8716C42.2597 24.6309 42.2498 24.3759 42.2285 24.1238C42.1605 23.4231 41.9435 22.7879 41.5748 22.1939C41.2713 21.7082 40.8685 21.3921 40.3948 21.1457C40.2487 21.0687 40.1013 20.9833 39.9736 20.8779C39.6928 20.6528 39.3879 20.4876 39.0702 20.3423C39.0617 20.3381 39.049 20.3395 39.0433 20.3338C38.6391 20.0447 38.1782 19.8852 37.7442 19.6573C37.557 19.5604 37.3571 19.4906 37.1656 19.4037C37.0224 19.3425 35.7559 18.2999 35.434 18.0763C35.2113 17.9253 34.983 17.7772 34.7731 17.6077C34.3661 17.2787 33.969 16.9369 33.6145 16.5395C33.362 16.2603 33.0954 16.0011 32.7947 15.7761C32.5466 15.5881 32.2955 15.4214 32.0289 15.2719C31.9325 15.2163 31.8531 15.1337 31.7637 15.0696C31.6871 15.0155 31.6162 14.9414 31.5326 14.9215C31.2688 14.8588 31.0532 14.6922 30.8206 14.5569C30.6533 14.46 30.4888 14.356 30.3243 14.2563C30.052 14.094 29.7896 13.9231 29.5343 13.7308C29.4152 13.641 29.2819 13.5784 29.1542 13.5043C28.8508 13.3263 28.5487 13.1497 28.2452 12.9759C28.2026 12.9545 28.1601 12.9417 28.1161 12.9218C27.9431 12.8392 27.7701 12.7523 27.5928 12.6668C27.451 12.6469 27.2993 12.6255 27.1475 12.607C27.0865 12.5999 27.0199 12.6013 26.9561 12.6013C26.7575 12.597 26.5604 12.5885 26.359 12.5913C26.2441 12.5928 25.0472 12.4632 24.9337 12.4817C24.8344 12.4945 23.8843 12.6227 23.5496 12.6113C23.4687 12.607 22.4888 12.5885 22.4079 12.5913C21.7811 12.6013 21.1542 12.5856 20.5317 12.5144C20.3785 12.4973 20.2239 12.476 20.0679 12.4817C19.9162 12.4874 19.7672 12.5287 19.6141 12.5443C19.39 12.5728 19.1659 12.6013 18.939 12.6184C18.5859 12.6455 18.2342 12.6683 17.8796 12.6868C17.6088 12.701 17.3351 12.7124 17.0642 12.7081C16.8103 12.7067 16.5565 12.6853 16.304 12.6683C15.9594 12.6483 15.6162 12.6213 15.2702 12.607C14.7823 12.5913 14.2902 12.5871 13.8023 12.5728C13.6478 12.5686 13.4946 12.5515 13.3414 12.5372C12.9429 12.5016 12.5444 12.5287 12.1473 12.5728C11.9133 12.5999 11.6751 12.5871 11.4411 12.5885C11.0695 12.5913 10.6965 12.6042 10.3249 12.5913C9.8853 12.5728 9.43999 12.6284 8.99751 12.5429C8.90108 12.5272 8.79897 12.5529 8.70395 12.5771C8.49973 12.6255 8.29693 12.6683 8.08562 12.6825C7.89133 12.6939 7.69136 12.7366 7.49423 12.7751C7.43325 12.7865 7.37369 12.8135 7.3198 12.8506C7.14678 12.9545 6.96383 12.9901 6.77096 12.9317C6.65183 12.8961 6.53412 12.9289 6.42492 12.9745C6.2987 13.03 6.16823 13.0614 6.02924 13.0571C5.96117 13.0557 5.88601 13.0856 5.82644 13.1212C5.75411 13.1668 5.70448 13.2408 5.73568 13.3434C5.76404 13.4302 5.74986 13.5143 5.74135 13.6026C5.72575 13.7749 5.7059 13.9515 5.73993 14.1239C5.74986 14.1723 5.74702 14.2222 5.74702 14.272C5.74419 14.5327 5.73993 14.7961 5.7371 15.0596C5.7371 15.2049 5.73993 15.3502 5.66335 15.4841C5.63357 15.5368 5.6279 15.6123 5.6279 15.6778C5.62506 15.8031 5.6279 15.9313 5.63499 16.0566C5.64208 16.2333 5.6364 16.4013 5.56549 16.5708C5.52579 16.6605 5.53004 16.7788 5.53288 16.8842C5.54706 17.2246 5.57684 17.5664 5.58677 17.9054C5.59244 18.139 5.5896 18.374 5.57259 18.6047C5.56691 18.6845 5.52011 18.7827 5.4648 18.8312C5.34142 18.9323 5.31448 19.0662 5.29604 19.2129C5.29462 19.2314 5.2932 19.2499 5.2932 19.2684C5.28895 19.5917 5.28895 19.9122 5.28469 20.2341C5.28327 20.4193 5.28469 20.603 5.27051 20.7882C5.26058 20.922 5.26767 21.0459 5.35277 21.1457C5.43786 21.2454 5.43786 21.355 5.42793 21.4747C5.40098 21.8236 5.36837 22.1726 5.34284 22.5187C5.33433 22.6568 5.34568 22.7921 5.34142 22.9289C5.32724 23.396 5.29746 23.8632 5.29604 24.3289C5.29462 24.5825 5.33717 26.2589 5.3556 26.5081C5.36553 26.6363 5.38255 26.7602 5.37546 26.887C5.35986 27.3257 5.33858 27.7615 5.32015 28.2002C5.31731 28.297 5.32015 28.3953 5.33291 28.4936C5.36837 28.777 5.32015 29.0576 5.28895 29.3353C5.26767 29.5091 5.16557 29.6558 5.07906 29.8039C5.00815 29.9179 4.93865 30.0332 4.88476 30.1543C4.76138 30.4235 4.78691 30.7084 4.86916 30.9804C4.93865 31.2012 5.00106 31.4234 5.0436 31.6541C5.06771 31.7937 5.14571 31.9219 5.20953 32.0515C5.22938 32.0914 5.27051 32.1255 5.31022 32.1455C5.47048 32.221 5.63073 32.2908 5.80801 32.2865C5.93422 32.2822 6.06186 32.2879 6.18808 32.2822C6.43201 32.2708 6.67452 32.2537 6.91845 32.2409C7.15529 32.2281 7.39212 32.2153 7.62612 32.201C7.98776 32.1768 8.34798 32.1569 8.71246 32.1312C8.79613 32.1255 8.87413 32.1312 8.93653 32.1982C8.9961 32.2651 9.06417 32.2722 9.13508 32.2267C9.20741 32.1782 9.26697 32.2053 9.33646 32.2409C9.44992 32.2922 9.96756 32.3036 10.4058 32.2623C10.4143 32.3976 10.4185 32.5329 10.4327 32.6668C10.4767 33.0428 10.6001 33.3846 10.7745 33.7122C10.9107 33.9657 11.034 34.2264 11.1702 34.4799C11.3205 34.7633 11.5417 34.9841 11.7701 35.1935C11.8424 35.259 11.9488 35.2974 12.0466 35.3131C12.1658 35.333 12.2707 35.3857 12.3827 35.427C12.594 35.5125 12.8068 35.6108 13.028 35.6564C13.2478 35.7019 13.4776 35.7162 13.7045 35.682C13.8931 35.6549 14.0803 35.6208 14.2689 35.5866C14.3951 35.5652 14.5185 35.5225 14.6447 35.5239C14.9071 35.5268 15.1454 35.4214 15.3737 35.3131C15.6687 35.1735 15.9637 35.0097 16.1424 34.695C16.175 34.6394 16.2204 34.5853 16.2672 34.5397C16.5026 34.3104 16.6302 34.0099 16.7366 33.698C16.7678 33.6082 16.7919 33.5128 16.8202 33.4216C16.8543 33.3376 16.8756 33.2564 16.8543 33.1667C16.8415 33.1225 16.8429 33.0684 16.8543 33.0214C16.9053 32.7764 16.9082 32.5286 16.9039 32.2808C17.3918 32.4004 18.3604 32.4731 18.498 32.4147L18.7731 32.2908L18.8738 32.2594C19.0057 32.2238 19.139 32.2181 19.2709 32.3107C19.3687 32.3805 19.485 32.3677 19.5871 32.3306C19.8977 32.2181 20.2097 32.2381 20.5274 32.2865C20.8593 32.3349 21.8265 32.4261 22.1413 32.4147C22.4519 32.4033 23.8502 32.3064 24.0388 32.295C24.3296 32.2751 24.6189 32.2665 24.9096 32.258C25.155 32.2523 25.3989 32.2523 25.6442 32.2509C25.7889 32.2509 25.9364 32.2381 26.0796 32.2566C26.3321 32.2922 26.5845 32.2965 26.8398 32.2765C27.2723 32.2423 28.4693 32.1967 29.106 32.0743C29.4237 32.0102 29.7442 31.9375 30.0647 31.8863C30.1668 31.8692 30.5568 31.9518 30.9454 32.0258C30.9057 32.2979 30.9979 32.5429 31.1014 32.7807C31.1581 32.9146 31.2248 33.0428 31.2943 33.1695C31.3638 33.3077 31.412 33.443 31.4219 33.6097C31.4333 33.7777 31.4886 33.9401 31.5921 34.0768L31.7637 34.2663L31.8446 34.3645C31.9226 34.4457 32.0006 34.5297 32.0771 34.6124C32.1225 34.6579 32.1835 34.695 32.2104 34.7534C32.3182 34.9798 32.521 35.0567 32.7182 35.1123C32.9834 35.1821 33.2571 35.2134 33.5237 35.2732C33.8995 35.3601 34.281 35.316 34.6625 35.3459C34.7561 35.353 34.8568 35.3074 34.9447 35.2633C35.0624 35.202 35.1816 35.1621 35.3064 35.1465C35.5361 35.118 35.7488 35.0482 35.9077 34.8474C35.9445 34.7989 36.0069 34.7619 36.0637 34.7391C36.3657 34.6351 36.5558 34.3902 36.7302 34.1267C36.9032 33.8746 37.0323 33.5983 37.1557 33.3148C37.2578 33.0741 37.3032 32.8149 37.3244 32.5557C37.3656 32.8904 38.3243 31.7937 38.6136 31.6626C38.7313 31.6099 38.8462 31.553 38.9582 31.5003C39.1213 31.4262 39.2957 31.4262 39.4687 31.4333C39.612 31.4376 39.7566 31.4461 39.9041 31.4504C39.9467 31.4533 39.9949 31.4504 40.0374 31.439C40.3792 31.3393 40.7224 31.2496 41.0571 31.1342C41.3393 31.0345 41.6216 30.9206 41.8868 30.7753C42.0697 30.6742 42.2569 30.6158 42.4512 30.5844C42.6923 30.5545 42.8752 30.4192 43.0383 30.254C43.1773 30.113 43.2199 29.9193 43.1915 29.7156C43.1731 29.5988 43.1461 29.4863 43.1291 29.371Z" fill="#1E5D8A"/>
</svg>
