<svg xmlns="http://www.w3.org/2000/svg" width="156" height="47" viewBox="0 0 156 47" fill="none"><path d="M32.6146 29.5476C33.1246 28.9276 33.6299 28.3042 34.0961 27.6504C35.2207 26.0736 36.0004 24.3135 36.4674 22.4357C37.3315 18.9588 37.0466 15.1556 35.2329 12.0193C34.424 10.6208 33.334 9.39802 32.0552 8.41257C32.0392 8.39992 32.0245 8.38559 32.008 8.37337C31.9933 8.36199 31.9629 8.34175 31.9262 8.31773C31.3775 7.90509 30.7945 7.5249 30.1737 7.18896C29.9815 8.27347 29.7732 9.38749 29.259 10.4695L29.2063 10.5782C28.4911 12.0387 27.2 13.1249 25.6291 13.6029C25.944 15.2568 25.8639 16.7658 25.3897 18.0926C25.0799 18.9601 24.5863 19.7596 23.9229 20.4703C22.7297 21.7483 21.0095 22.6751 19.2047 23.0127C18.0675 23.2264 16.9316 23.2353 15.8264 23.041C14.6753 22.8382 13.5807 22.4024 12.661 21.7807C10.3739 20.2342 8.98385 17.5809 9.03359 14.8572L9.0378 14.684C9.08965 12.9415 9.57942 11.3483 10.0536 9.80772C10.2732 9.0937 10.4983 8.36283 10.6745 7.62479C9.39354 8.41341 8.28754 9.36894 7.37838 10.4716C7.25066 10.6263 7.13054 10.7839 7.01336 10.9432C6.9847 10.9824 6.95688 11.022 6.92864 11.0617C6.8376 11.1894 6.74993 11.3184 6.66563 11.4486C6.63949 11.4891 6.61252 11.5291 6.58723 11.57C6.50335 11.7036 6.42369 11.8389 6.3474 11.975C5.80241 12.9382 5.4239 13.9662 5.24013 15.0149C5.13897 15.5898 5.20473 16.2629 5.29113 16.9335C5.30757 17.1017 5.32865 17.2707 5.3552 17.441C5.36068 17.4768 5.36531 17.5135 5.37079 17.5493C5.46647 18.2827 5.54445 19.0271 5.44919 19.7499C5.44793 19.7588 5.44751 19.7676 5.44624 19.7765C5.43149 19.8831 5.40957 19.9885 5.38681 20.0939C5.38007 20.1251 5.37585 20.1571 5.36827 20.1887C5.33623 20.3206 5.29788 20.4513 5.25067 20.5811C5.08376 21.0401 4.34193 21.8578 1.802 24.3839C1.50231 24.6819 1.19715 24.9853 0.956055 25.2294L3.34593 27.4094C3.45383 28.4719 3.56132 29.5341 3.66922 30.5967L3.77164 31.607C3.94319 33.2968 3.30673 34.6679 3.09472 36.2949C2.97417 37.2192 3.3257 38.1086 4.23149 38.4685C4.60157 38.6156 5.00367 38.6612 5.40072 38.6898C8.39881 38.9065 13.0121 36.8374 14.3908 40.8015C14.6825 41.6403 14.9691 42.592 15.026 44.1777L27.7387 44.2422C27.1743 40.2502 28.078 36.0559 30.2441 32.6544C30.9467 31.5527 31.7863 30.555 32.6146 29.5476Z" fill="white"></path><path d="M24.738 13.0446C24.4084 11.7494 23.8575 10.4946 23.221 9.39787C23.0908 9.17321 22.9571 8.9553 22.8202 8.74497C22.7856 8.69144 22.7515 8.63538 22.7165 8.58312C21.8119 7.2297 20.684 6.02928 19.4048 5.00167C19.1401 4.78924 18.8691 4.58439 18.5921 4.38713C17.0634 3.29841 15.3551 2.44109 13.565 1.85479C13.2973 1.76712 11.3226 1.3903 11.272 1.22803C11.7631 2.80105 11.8815 4.58397 11.6881 6.21768C11.6813 6.27585 11.6771 6.33486 11.6695 6.39261C11.2906 9.24571 9.8731 11.7793 9.78627 14.7062C9.78458 14.761 9.78332 14.8158 9.78248 14.871C9.73611 17.381 11.0057 19.7578 13.0803 21.1605C13.9426 21.7435 14.9327 22.1232 15.9561 22.3036C16.9766 22.4832 18.0294 22.468 19.0474 22.2796C19.0705 21.0817 19.0916 19.8998 18.9677 18.7234C18.9302 18.0385 18.8134 17.3616 18.7296 16.6834C17.9228 12.5903 16.4855 8.65899 14.4505 5.01263C14.9707 5.94456 15.7142 6.77701 16.2554 7.70851C16.8101 8.6632 17.3036 9.65371 17.7327 10.6716C19.2332 14.2303 20.0686 18.2712 19.6143 22.1523C21.1797 21.8358 22.2743 21.1378 23.3757 19.9588C23.9451 19.3489 24.3999 18.6379 24.6844 17.8408C25.2193 16.3437 25.1502 14.6649 24.738 13.0446Z" fill="#9B9A84"></path><path d="M30.3151 1.02645C27.6618 0.606218 24.858 0.994835 22.5435 2.28292C21.6559 2.77692 20.729 3.4707 19.9733 4.30146C19.94 4.33813 19.8991 4.38661 19.8662 4.42412C20.4057 4.85109 21.8578 6.08902 23.2002 8.05446C23.4122 7.7063 23.6247 7.35772 23.8687 7.03107C24.4845 6.18808 25.1787 5.40157 25.9657 4.71959C26.7454 4.03466 28.1136 3.10147 29.0552 2.66775C28.2877 3.35774 27.0548 4.39251 26.3728 5.1356C25.6934 5.87954 25.0535 6.65341 24.4753 7.469C24.1756 7.87363 23.8995 8.29387 23.6327 8.72126C24.3568 9.8947 25.0148 11.284 25.4375 12.8717C26.7695 12.4553 27.9083 11.5238 28.5317 10.25C28.5486 10.2155 28.565 10.1813 28.5815 10.1472C29.2006 8.8456 29.3439 7.45425 29.6137 6.08397C29.7237 5.52464 29.8544 4.96911 30.0483 4.42412C30.4419 3.31727 31.0978 2.20874 31.9264 1.36449C31.8447 1.44878 30.5077 1.0568 30.3151 1.02645Z" fill="#9B9A84"></path><path d="M19.4043 5.0012C19.6125 5.16853 19.8098 5.34767 20.0096 5.52385C19.7465 5.28191 19.5379 5.10657 19.4056 4.99951L19.4043 5.0012Z" fill="#3BBFD1"></path><path d="M69.1035 23.1543C68.5827 23.1413 67.9316 23.1348 67.1504 23.1348C66.3691 23.1217 65.5163 23.1087 64.5918 23.0957C63.6803 23.0827 62.7233 23.0762 61.7207 23.0762C60.7311 23.0632 59.7611 23.0566 58.8105 23.0566C57.86 23.0436 56.9551 23.0436 56.0957 23.0566C55.2363 23.0697 54.4876 23.0892 53.8496 23.1152V28.916C53.8496 30.0228 53.8626 30.9928 53.8887 31.8262C53.9277 32.6465 53.9668 33.3561 54.0059 33.9551C54.0579 34.554 54.1165 35.0553 54.1816 35.459C54.2598 35.8626 54.3379 36.2012 54.416 36.4746V36.5527H49.7285V36.4746C49.8066 36.2012 49.8783 35.8626 49.9434 35.459C50.0215 35.0553 50.0866 34.554 50.1387 33.9551C50.1908 33.3561 50.2298 32.6465 50.2559 31.8262C50.2819 30.9928 50.2949 30.0228 50.2949 28.916V16.2012C50.2949 15.0944 50.2819 14.1309 50.2559 13.3105C50.2298 12.4772 50.1908 11.7611 50.1387 11.1621C50.0866 10.5501 50.0215 10.0423 49.9434 9.63867C49.8783 9.23503 49.8066 8.89648 49.7285 8.62305V8.54492H54.416V8.62305C54.3379 8.89648 54.2598 9.23503 54.1816 9.63867C54.1165 10.0423 54.0579 10.5501 54.0059 11.1621C53.9668 11.7611 53.9277 12.4772 53.8887 13.3105C53.8626 14.1309 53.8496 15.0944 53.8496 16.2012V21.2012C54.5267 21.2272 55.2949 21.2467 56.1543 21.2598C57.0137 21.2598 57.9121 21.2598 58.8496 21.2598C59.7871 21.2467 60.7376 21.2337 61.7012 21.2207C62.6777 21.2077 63.6152 21.1947 64.5137 21.1816C65.4251 21.1556 66.2715 21.1296 67.0527 21.1035C67.847 21.0775 68.5306 21.0514 69.1035 21.0254V16.2012C69.1035 15.0944 69.084 14.1309 69.0449 13.3105C69.0189 12.4772 68.9798 11.7611 68.9277 11.1621C68.8887 10.5501 68.8301 10.0423 68.752 9.63867C68.6868 9.23503 68.6152 8.89648 68.5371 8.62305V8.54492H73.2246V8.62305C73.1465 8.89648 73.0684 9.23503 72.9902 9.63867C72.9251 10.0423 72.8665 10.5501 72.8145 11.1621C72.7624 11.7611 72.7233 12.4772 72.6973 13.3105C72.6712 14.1309 72.6582 15.0944 72.6582 16.2012V28.916C72.6582 30.0228 72.6712 30.9928 72.6973 31.8262C72.7233 32.6465 72.7624 33.3561 72.8145 33.9551C72.8665 34.554 72.9251 35.0553 72.9902 35.459C73.0684 35.8626 73.1465 36.2012 73.2246 36.4746V36.5527H68.5371V36.4746C68.6152 36.2012 68.6868 35.8626 68.752 35.459C68.8301 35.0553 68.8887 34.554 68.9277 33.9551C68.9798 33.3561 69.0189 32.6465 69.0449 31.8262C69.084 30.9928 69.1035 30.0228 69.1035 28.916V23.1543ZM79.1621 24.1895C79.1621 23.0827 79.1426 22.1191 79.1035 21.2988C79.0775 20.4655 79.0384 19.7493 78.9863 19.1504C78.9473 18.5514 78.8887 18.0501 78.8105 17.6465C78.7454 17.2428 78.6738 16.9043 78.5957 16.6309V16.5527H83.1074V16.6309C83.0293 16.9043 82.9577 17.2428 82.8926 17.6465C82.8275 18.0501 82.7689 18.5514 82.7168 19.1504C82.6647 19.7493 82.6257 20.4655 82.5996 21.2988C82.5736 22.1191 82.5605 23.0827 82.5605 24.1895V28.916C82.5605 30.0228 82.5736 30.9928 82.5996 31.8262C82.6257 32.6465 82.6647 33.3561 82.7168 33.9551C82.7689 34.554 82.8275 35.0553 82.8926 35.459C82.9577 35.8626 83.0293 36.2012 83.1074 36.4746V36.5527H78.5957V36.4746C78.6738 36.2012 78.7454 35.8626 78.8105 35.459C78.8887 35.0553 78.9473 34.554 78.9863 33.9551C79.0384 33.3561 79.0775 32.6465 79.1035 31.8262C79.1426 30.9928 79.1621 30.0228 79.1621 28.916V24.1895ZM78.752 10.6348C78.752 10.3483 78.804 10.0814 78.9082 9.83398C79.0254 9.57357 79.1751 9.35221 79.3574 9.16992C79.5397 8.97461 79.7546 8.82487 80.002 8.7207C80.2624 8.60352 80.5423 8.54492 80.8418 8.54492C81.1413 8.54492 81.4147 8.60352 81.6621 8.7207C81.9225 8.82487 82.1439 8.97461 82.3262 9.16992C82.5215 9.35221 82.6712 9.57357 82.7754 9.83398C82.8926 10.0814 82.9512 10.3483 82.9512 10.6348C82.9512 11.2337 82.7493 11.735 82.3457 12.1387C81.9421 12.5423 81.4408 12.7441 80.8418 12.7441C80.5423 12.7441 80.2624 12.6921 80.002 12.5879C79.7546 12.4707 79.5397 12.321 79.3574 12.1387C79.1751 11.9434 79.0254 11.722 78.9082 11.4746C78.804 11.2142 78.752 10.9342 78.752 10.6348ZM88.6934 23.7988C88.6934 22.6921 88.6738 21.7285 88.6348 20.9082C88.6087 20.0749 88.5697 19.3587 88.5176 18.7598C88.4785 18.1608 88.4199 17.6595 88.3418 17.2559C88.2767 16.8522 88.2051 16.5137 88.127 16.2402V16.1621H92.6387V16.2402C92.5736 16.4355 92.515 16.6569 92.4629 16.9043C92.4108 17.1517 92.3652 17.4316 92.3262 17.7441C93.0944 17.3014 93.9408 16.9303 94.8652 16.6309C95.8027 16.3184 96.8379 16.1621 97.9707 16.1621C99.416 16.1621 100.731 16.4095 101.916 16.9043C103.114 17.3861 104.136 18.0827 104.982 18.9941C105.842 19.9056 106.506 21.0059 106.975 22.2949C107.443 23.584 107.678 25.0293 107.678 26.6309C107.678 27.972 107.443 29.2611 106.975 30.498C106.519 31.735 105.842 32.8288 104.943 33.7793C104.058 34.7298 102.964 35.4915 101.662 36.0645C100.36 36.6243 98.8626 36.9043 97.1699 36.9043C96.1543 36.9043 95.2298 36.8262 94.3965 36.6699C93.5632 36.5137 92.7949 36.3118 92.0918 36.0645V38.916C92.0918 40.0228 92.1048 40.9863 92.1309 41.8066C92.1569 42.64 92.196 43.3561 92.248 43.9551C92.3001 44.554 92.3587 45.0553 92.4238 45.459C92.4889 45.8626 92.5605 46.2012 92.6387 46.4746V46.5527H88.127V46.4746C88.2051 46.2012 88.2767 45.8626 88.3418 45.459C88.4199 45.0553 88.4785 44.554 88.5176 43.9551C88.5697 43.3561 88.6087 42.64 88.6348 41.8066C88.6738 40.9863 88.6934 40.0228 88.6934 38.916V23.7988ZM97.2871 17.627C96.8444 17.627 96.3887 17.6855 95.9199 17.8027C95.4642 17.9069 95.0085 18.0632 94.5527 18.2715C94.11 18.4668 93.6803 18.7207 93.2637 19.0332C92.86 19.3327 92.4954 19.6777 92.1699 20.0684C92.1439 20.5632 92.1243 21.123 92.1113 21.748C92.0983 22.373 92.0918 23.0566 92.0918 23.7988V34.0332C92.3522 34.2285 92.6452 34.4108 92.9707 34.5801C93.2962 34.7493 93.6608 34.9056 94.0645 35.0488C94.4811 35.179 94.9434 35.2832 95.4512 35.3613C95.972 35.4395 96.5449 35.4785 97.1699 35.4785C98.1855 35.4785 99.1035 35.2962 99.9238 34.9316C100.744 34.5671 101.434 34.0397 101.994 33.3496C102.567 32.6595 103.003 31.8197 103.303 30.8301C103.615 29.8405 103.771 28.7207 103.771 27.4707C103.771 26.0645 103.654 24.7624 103.42 23.5645C103.186 22.3535 102.808 21.3118 102.287 20.4395C101.779 19.554 101.115 18.8639 100.295 18.3691C99.4746 17.8743 98.472 17.627 97.2871 17.627Z" fill="#9B9A84"></path><path d="M125.49 23.3887C125.49 21.6699 125.145 20.4069 124.455 19.5996C123.765 18.7923 122.84 18.3887 121.682 18.3887C121.265 18.3887 120.796 18.4798 120.275 18.6621C119.755 18.8314 119.221 19.0658 118.674 19.3652C118.127 19.6517 117.58 19.9902 117.033 20.3809C116.486 20.7715 115.972 21.1882 115.49 21.6309L115.451 24.1895V28.916C115.451 30.0228 115.464 30.9928 115.49 31.8262C115.516 32.6465 115.555 33.3561 115.607 33.9551C115.66 34.554 115.718 35.0553 115.783 35.459C115.848 35.8626 115.92 36.2012 115.998 36.4746V36.5527H111.486V36.4746C111.564 36.2012 111.636 35.8626 111.701 35.459C111.779 35.0553 111.838 34.554 111.877 33.9551C111.929 33.3561 111.968 32.6465 111.994 31.8262C112.033 30.9928 112.053 30.0228 112.053 28.916V24.1895C112.053 23.0827 112.033 22.1191 111.994 21.2988C111.968 20.4655 111.929 19.7493 111.877 19.1504C111.838 18.5514 111.779 18.0501 111.701 17.6465C111.636 17.2428 111.564 16.9043 111.486 16.6309V16.5527H115.998V16.6309C115.894 16.9564 115.809 17.373 115.744 17.8809C115.692 18.3757 115.633 19.0267 115.568 19.834C116.102 19.3913 116.675 18.9486 117.287 18.5059C117.912 18.0632 118.557 17.6725 119.221 17.334C119.885 16.9824 120.562 16.7025 121.252 16.4941C121.942 16.2728 122.619 16.1621 123.283 16.1621C124.299 16.1621 125.158 16.3379 125.861 16.6895C126.577 17.041 127.157 17.5033 127.6 18.0762C128.055 18.6491 128.381 19.3066 128.576 20.0488C128.785 20.778 128.889 21.5202 128.889 22.2754V28.916C128.889 30.0228 128.902 30.9928 128.928 31.8262C128.954 32.6465 128.993 33.3561 129.045 33.9551C129.097 34.554 129.156 35.0553 129.221 35.459C129.286 35.8626 129.357 36.2012 129.436 36.4746V36.5527H124.924V36.4746C125.002 36.2012 125.074 35.8626 125.139 35.459C125.217 35.0553 125.275 34.554 125.314 33.9551C125.367 33.3561 125.406 32.6465 125.432 31.8262C125.471 30.9928 125.49 30.0228 125.49 28.916V23.3887ZM133.146 26.5137C133.146 25.0423 133.42 23.6816 133.967 22.4316C134.514 21.1686 135.262 20.0749 136.213 19.1504C137.176 18.2259 138.309 17.5033 139.611 16.9824C140.913 16.4616 142.313 16.2012 143.811 16.2012C145.282 16.2012 146.662 16.4486 147.951 16.9434C149.253 17.4251 150.386 18.1152 151.35 19.0137C152.313 19.9121 153.068 21.0059 153.615 22.2949C154.175 23.584 154.455 25.0293 154.455 26.6309C154.455 27.972 154.221 29.2611 153.752 30.498C153.283 31.735 152.593 32.8288 151.682 33.7793C150.77 34.7298 149.65 35.4915 148.322 36.0645C147.007 36.6243 145.49 36.9043 143.771 36.9043C142.313 36.9043 140.939 36.6634 139.65 36.1816C138.361 35.6999 137.235 35.0098 136.271 34.1113C135.308 33.2129 134.546 32.1257 133.986 30.8496C133.426 29.5605 133.146 28.1152 133.146 26.5137ZM144.221 35.4785C145.145 35.4785 145.992 35.2962 146.76 34.9316C147.541 34.5671 148.212 34.0397 148.771 33.3496C149.331 32.6595 149.768 31.8197 150.08 30.8301C150.393 29.8405 150.549 28.7207 150.549 27.4707C150.549 26.0645 150.399 24.7624 150.1 23.5645C149.8 22.3535 149.351 21.3118 148.752 20.4395C148.166 19.554 147.424 18.8639 146.525 18.3691C145.627 17.8743 144.579 17.627 143.381 17.627C142.456 17.627 141.61 17.8092 140.842 18.1738C140.074 18.5254 139.403 19.0397 138.83 19.7168C138.27 20.3939 137.834 21.2272 137.521 22.2168C137.209 23.1934 137.053 24.3066 137.053 25.5566C137.053 26.9629 137.202 28.2715 137.502 29.4824C137.814 30.6934 138.27 31.748 138.869 32.6465C139.468 33.5319 140.21 34.2285 141.096 34.7363C141.994 35.2311 143.036 35.4785 144.221 35.4785Z" fill="white"></path></svg>