<?xml version="1.0" encoding="utf-8"?>
<!-- Generator: Adobe Illustrator 27.0.0, SVG Export Plug-In . SVG Version: 6.00 Build 0)  -->
<svg version="1.1" id="Layer_1" xmlns="http://www.w3.org/2000/svg" xmlns:xlink="http://www.w3.org/1999/xlink" x="0px" y="0px"
	 viewBox="0 0 842.8 137.8" style="enable-background:new 0 0 842.8 137.8;" xml:space="preserve">
<style type="text/css">
	.st0{fill:#245D51;}
	.st1{font-family:'Gilroy-Bold';}
	.st2{font-size:116.6218px;}
	.st3{fill:#FF4E59;}
</style>
<g>
	<g>
		<text transform="matrix(1 0 0 1 235.3651 101.0864)" class="st0 st1 st2">Papers Bay</text>
	</g>
	<g>
		<path class="st3" d="M195.3,101.2v27.1h-11.9v-27.1h2.8v-6.3H185v-6.3h2c0,0,2.7-21-6.3-38l2.9-1.1c5.3,8.6,8.9,21.1,8.4,39.1h1.6
			v6.3h-1.2v6.3H195.3z"/>
		<path class="st3" d="M177.3,59.4c-8.1,4.4-10.7,8.3-10.7,8.3v51.9c-21.1-0.4-51.5,18.2-51.5,18.2C125,69.3,177.3,59.4,177.3,59.4z
			"/>
		<path class="st3" d="M37.3,119.6V67.7c0,0-2.5-3.9-10.7-8.3c0,0,52.3,9.9,62.2,78.4C88.8,137.8,58.4,119.2,37.3,119.6z"/>
		<path class="st3" d="M183.7,49.5l18.4-7.2L103,0L0,42.3l59.6,23.4c26.9,10.6,55.9,10.6,82.8,0l38.4-15.1
			c-5.3-9.9-14.6-18.5-30.9-20.5C149.9,30.2,171.3,29.5,183.7,49.5z M101,67.7c-6.7,0-12.2-6.4-12.2-14.3c0-7.9,5.5-14.3,12.2-14.3
			c6.7,0,12.2,6.4,12.2,14.3C113.2,61.3,107.7,67.7,101,67.7z"/>
	</g>
</g>
</svg>
