<svg width="843" height="138" viewBox="0 0 843 138" fill="none" xmlns="http://www.w3.org/2000/svg">
<g clip-path="url(#clip0_293_61)">
<path d="M245.636 97.4648V12.649H274.294C280.948 12.649 286.387 13.85 290.612 16.252C294.863 18.6264 298.011 21.8429 300.054 25.9015C302.097 29.96 303.119 34.488 303.119 39.4853C303.119 44.4825 302.097 49.0243 300.054 53.1105C298.038 57.1966 294.919 60.4545 290.694 62.8842C286.47 65.2862 281.059 66.4872 274.46 66.4872H253.919V57.3761H274.129C278.684 57.3761 282.343 56.5892 285.103 55.0155C287.864 53.4418 289.866 51.3158 291.108 48.6377C292.378 45.932 293.014 42.8812 293.014 39.4853C293.014 36.0893 292.378 33.0523 291.108 30.3742C289.866 27.6961 287.851 25.5978 285.062 24.0792C282.273 22.5331 278.574 21.7601 273.963 21.7601H255.907V97.4648H245.636ZM337.057 98.9557C333.026 98.9557 329.368 98.1965 326.083 96.678C322.797 95.1319 320.188 92.9093 318.255 90.0103C316.323 87.0837 315.356 83.5497 315.356 79.4083C315.356 75.7639 316.074 72.8097 317.51 70.5457C318.946 68.2542 320.864 66.4596 323.266 65.1619C325.668 63.8643 328.319 62.898 331.218 62.2629C334.145 61.6003 337.085 61.0757 340.039 60.6892C343.904 60.1922 347.038 59.8195 349.44 59.571C351.87 59.2949 353.637 58.8394 354.741 58.2044C355.873 57.5694 356.439 56.465 356.439 54.8913V54.5599C356.439 50.4738 355.321 47.2987 353.085 45.0347C350.876 42.7708 347.521 41.6388 343.021 41.6388C338.355 41.6388 334.697 42.6603 332.046 44.7034C329.396 46.7465 327.532 48.9276 326.455 51.2468L317.179 47.9337C318.835 44.0684 321.044 41.059 323.805 38.9055C326.593 36.7243 329.63 35.2058 332.916 34.3499C336.229 33.4664 339.487 33.0247 342.69 33.0247C344.733 33.0247 347.079 33.2732 349.73 33.7701C352.408 34.2395 354.99 35.2196 357.474 36.7105C359.987 38.2014 362.071 40.4516 363.728 43.461C365.384 46.4704 366.213 50.5014 366.213 55.5539V97.4648H356.439V88.8507H355.942C355.279 90.2312 354.175 91.7083 352.629 93.282C351.083 94.8558 349.026 96.1948 346.458 97.2992C343.891 98.4036 340.757 98.9557 337.057 98.9557ZM338.548 90.176C342.414 90.176 345.671 89.4167 348.322 87.8982C351 86.3797 353.015 84.4194 354.368 82.0174C355.749 79.6154 356.439 77.0892 356.439 74.4387V65.4932C356.025 65.9902 355.114 66.4458 353.706 66.8599C352.325 67.2464 350.724 67.5915 348.902 67.8953C347.107 68.1713 345.354 68.4198 343.642 68.6407C341.958 68.834 340.591 68.9996 339.542 69.1377C337.002 69.469 334.628 70.0074 332.419 70.7528C330.238 71.4707 328.471 72.5612 327.118 74.0245C325.793 75.4602 325.13 77.4205 325.13 79.9053C325.13 83.3013 326.386 85.8689 328.899 87.6083C331.439 89.3201 334.655 90.176 338.548 90.176ZM384.052 121.319V33.8529H393.494V43.958H394.654C395.372 42.8536 396.366 41.4455 397.636 39.7337C398.933 37.9943 400.783 36.4482 403.185 35.0954C405.615 33.7149 408.9 33.0247 413.042 33.0247C418.398 33.0247 423.119 34.3637 427.205 37.0418C431.291 39.7199 434.48 43.5162 436.772 48.4307C439.063 53.3451 440.209 59.1431 440.209 65.8246C440.209 72.5612 439.063 78.4006 436.772 83.3427C434.48 88.2571 431.305 92.0672 427.247 94.7729C423.188 97.451 418.508 98.7901 413.207 98.7901C409.121 98.7901 405.849 98.1137 403.392 96.7608C400.935 95.3803 399.044 93.8204 397.718 92.081C396.393 90.314 395.372 88.8507 394.654 87.6911H393.826V121.319H384.052ZM393.66 65.6589C393.66 70.4629 394.364 74.701 395.772 78.373C397.18 82.0174 399.237 84.875 401.943 86.9457C404.648 88.9888 407.962 90.0103 411.882 90.0103C415.968 90.0103 419.378 88.9336 422.111 86.78C424.872 84.5989 426.943 81.6723 428.323 78.0003C429.731 74.3006 430.435 70.1868 430.435 65.6589C430.435 61.1862 429.745 57.1552 428.365 53.566C427.012 49.9492 424.955 47.0916 422.194 44.9933C419.461 42.8674 416.023 41.8044 411.882 41.8044C407.906 41.8044 404.566 42.8122 401.86 44.8277C399.154 46.8155 397.111 49.6041 395.731 53.1933C394.35 56.7549 393.66 60.9101 393.66 65.6589ZM481.789 98.7901C475.66 98.7901 470.372 97.4372 465.927 94.7315C461.51 91.9982 458.1 88.1881 455.698 83.3013C453.324 78.3868 452.136 72.6717 452.136 66.1559C452.136 59.6401 453.324 53.8973 455.698 48.9276C458.1 43.9304 461.441 40.0374 465.72 37.2489C470.027 34.4327 475.052 33.0247 480.795 33.0247C484.108 33.0247 487.38 33.5769 490.61 34.6812C493.84 35.7856 496.781 37.5802 499.431 40.065C502.082 42.5223 504.194 45.7802 505.768 49.8388C507.341 53.8973 508.128 58.8946 508.128 64.8306V68.972H459.094V60.5236H498.189C498.189 56.9343 497.471 53.7317 496.035 50.9155C494.627 48.0994 492.612 45.8768 489.989 44.2479C487.394 42.6189 484.329 41.8044 480.795 41.8044C476.902 41.8044 473.534 42.7708 470.69 44.7034C467.874 46.6085 465.706 49.0933 464.188 52.1579C462.669 55.2226 461.91 58.5081 461.91 62.0145V67.6468C461.91 72.4508 462.738 76.5232 464.395 79.8639C466.079 83.177 468.412 85.7033 471.394 87.4427C474.376 89.1544 477.841 90.0103 481.789 90.0103C484.357 90.0103 486.676 89.6514 488.746 88.9336C490.845 88.1881 492.653 87.0837 494.172 85.6204C495.69 84.1295 496.864 82.2797 497.692 80.071L507.134 82.7215C506.14 85.9241 504.47 88.7403 502.123 91.1699C499.776 93.5719 496.877 95.4494 493.426 96.8022C489.975 98.1275 486.096 98.7901 481.789 98.7901ZM522.996 97.4648V33.8529H532.438V43.461H533.101C534.26 40.3135 536.359 37.7597 539.396 35.7994C542.433 33.8391 545.856 32.859 549.666 32.859C550.384 32.859 551.282 32.8728 552.358 32.9004C553.435 32.928 554.25 32.9695 554.802 33.0247V42.964C554.47 42.8812 553.711 42.757 552.524 42.5913C551.364 42.398 550.136 42.3014 548.838 42.3014C545.746 42.3014 542.985 42.9502 540.555 44.2479C538.153 45.5179 536.248 47.2849 534.84 49.5489C533.46 51.7852 532.769 54.3391 532.769 57.2104V97.4648H522.996ZM611.446 48.0994L602.666 50.5842C602.114 49.1209 601.299 47.699 600.223 46.3186C599.173 44.9105 597.738 43.7509 595.915 42.8398C594.093 41.9287 591.76 41.4731 588.916 41.4731C585.024 41.4731 581.779 42.3704 579.184 44.165C576.617 45.932 575.333 48.1822 575.333 50.9155C575.333 53.3451 576.216 55.264 577.983 56.6721C579.75 58.0801 582.511 59.2535 586.266 60.1922L595.708 62.5114C601.396 63.8919 605.634 66.004 608.422 68.8478C611.211 71.6639 612.605 75.2946 612.605 79.7397C612.605 83.3841 611.556 86.642 609.458 89.5134C607.387 92.3847 604.488 94.6487 600.761 96.3053C597.034 97.9618 592.699 98.7901 587.757 98.7901C581.269 98.7901 575.899 97.382 571.647 94.5659C567.395 91.7497 564.703 87.6359 563.571 82.2245L572.848 79.9053C573.731 83.3289 575.402 85.8965 577.859 87.6083C580.344 89.3201 583.588 90.176 587.591 90.176C592.147 90.176 595.764 89.2097 598.442 87.277C601.147 85.3167 602.5 82.9699 602.5 80.2366C602.5 78.0279 601.727 76.1781 600.181 74.6871C598.635 73.1686 596.261 72.0367 593.058 71.2912L582.456 68.8064C576.63 67.4259 572.351 65.2862 569.618 62.3872C566.912 59.4606 565.559 55.8024 565.559 51.4125C565.559 47.8233 566.567 44.6482 568.582 41.8873C570.625 39.1263 573.4 36.959 576.906 35.3853C580.44 33.8115 584.444 33.0247 588.916 33.0247C595.211 33.0247 600.153 34.4051 603.743 37.1661C607.36 39.927 609.927 43.5714 611.446 48.0994ZM661.443 97.4648V12.649H691.095C697.004 12.649 701.877 13.6705 705.714 15.7136C709.552 17.7291 712.41 20.4486 714.287 23.8722C716.164 27.2681 717.103 31.0368 717.103 35.1782C717.103 38.8226 716.454 41.832 715.157 44.2064C713.887 46.5808 712.202 48.4583 710.104 49.8388C708.033 51.2192 705.783 52.2408 703.354 52.9034V53.7317C705.949 53.8973 708.558 54.8084 711.181 56.465C713.804 58.1216 715.999 60.496 717.766 63.5882C719.533 66.6804 720.416 70.4629 720.416 74.9356C720.416 79.1875 719.45 83.0114 717.517 86.4073C715.585 89.8033 712.534 92.4952 708.365 94.483C704.196 96.4709 698.771 97.4648 692.089 97.4648H661.443ZM671.713 88.3538H692.089C698.798 88.3538 703.561 87.0561 706.377 84.4608C709.221 81.838 710.643 78.6629 710.643 74.9356C710.643 72.0643 709.911 69.4138 708.448 66.9841C706.984 64.5269 704.9 62.5667 702.194 61.1034C699.488 59.6125 696.286 58.867 692.586 58.867H671.713V88.3538ZM671.713 49.9216H690.764C693.856 49.9216 696.645 49.3142 699.129 48.0994C701.642 46.8846 703.63 45.1728 705.093 42.964C706.584 40.7553 707.329 38.16 707.329 35.1782C707.329 31.4509 706.032 28.2897 703.437 25.6944C700.841 23.0715 696.727 21.7601 691.095 21.7601H671.713V49.9216ZM754.686 98.9557C750.655 98.9557 746.997 98.1965 743.712 96.678C740.426 95.1319 737.817 92.9093 735.884 90.0103C733.952 87.0837 732.985 83.5497 732.985 79.4083C732.985 75.7639 733.703 72.8097 735.139 70.5457C736.575 68.2542 738.493 66.4596 740.895 65.1619C743.297 63.8643 745.948 62.898 748.847 62.2629C751.774 61.6003 754.714 61.0757 757.668 60.6892C761.533 60.1922 764.667 59.8195 767.069 59.571C769.499 59.2949 771.266 58.8394 772.37 58.2044C773.502 57.5694 774.068 56.465 774.068 54.8913V54.5599C774.068 50.4738 772.95 47.2987 770.714 45.0347C768.505 42.7708 765.15 41.6388 760.65 41.6388C755.984 41.6388 752.326 42.6603 749.675 44.7034C747.025 46.7465 745.161 48.9276 744.084 51.2468L734.808 47.9337C736.464 44.0684 738.673 41.059 741.434 38.9055C744.222 36.7243 747.259 35.2058 750.545 34.3499C753.858 33.4664 757.116 33.0247 760.319 33.0247C762.362 33.0247 764.709 33.2732 767.359 33.7701C770.037 34.2395 772.619 35.2196 775.103 36.7105C777.616 38.2014 779.7 40.4516 781.357 43.461C783.014 46.4704 783.842 50.5014 783.842 55.5539V97.4648H774.068V88.8507H773.571C772.908 90.2312 771.804 91.7083 770.258 93.282C768.712 94.8558 766.655 96.1948 764.087 97.2992C761.52 98.4036 758.386 98.9557 754.686 98.9557ZM756.177 90.176C760.043 90.176 763.3 89.4167 765.951 87.8982C768.629 86.3797 770.645 84.4194 771.997 82.0174C773.378 79.6154 774.068 77.0892 774.068 74.4387V65.4932C773.654 65.9902 772.743 66.4458 771.335 66.8599C769.954 67.2464 768.353 67.5915 766.531 67.8953C764.736 68.1713 762.983 68.4198 761.271 68.6407C759.587 68.834 758.22 68.9996 757.171 69.1377C754.631 69.469 752.257 70.0074 750.048 70.7528C747.867 71.4707 746.1 72.5612 744.747 74.0245C743.422 75.4602 742.759 77.4205 742.759 79.9053C742.759 83.3013 744.015 85.8689 746.528 87.6083C749.068 89.3201 752.284 90.176 756.177 90.176ZM805.698 121.319C804.041 121.319 802.564 121.181 801.267 120.905C799.969 120.657 799.072 120.408 798.575 120.16L801.06 111.546C803.434 112.153 805.532 112.374 807.355 112.208C809.177 112.043 810.792 111.228 812.2 109.765C813.636 108.329 814.947 105.996 816.134 102.766L817.957 97.7962L794.433 33.8529H805.035L822.595 84.5437H823.258L840.817 33.8529H851.419L824.417 106.742C823.202 110.027 821.698 112.747 819.903 114.9C818.108 117.081 816.024 118.696 813.65 119.746C811.303 120.795 808.652 121.319 805.698 121.319Z" fill="white"/>
<path d="M195.299 101.2V128.3H183.399V101.2H186.199V94.9H184.999V88.6H186.999C186.999 88.6 189.699 67.6 180.699 50.6L183.599 49.5C188.899 58.1 192.499 70.6 191.999 88.6H193.599V94.9H192.399V101.2H195.299Z" fill="white"/>
<path d="M177.3 59.4004C169.2 63.8004 166.6 67.7004 166.6 67.7004V119.6C145.5 119.2 115.1 137.8 115.1 137.8C125 69.3004 177.3 59.4004 177.3 59.4004Z" fill="white"/>
<path d="M37.2996 119.6V67.7004C37.2996 67.7004 34.7996 63.8004 26.5996 59.4004C26.5996 59.4004 78.8996 69.3004 88.7996 137.8C88.7996 137.8 58.3996 119.2 37.2996 119.6Z" fill="white"/>
<path d="M183.7 49.5L202.1 42.3L103 0L0 42.3L59.6 65.7C86.5 76.3 115.5 76.3 142.4 65.7L180.8 50.6C175.5 40.7 166.2 32.1 149.9 30.1C149.9 30.2 171.3 29.5 183.7 49.5ZM101 67.7C94.3 67.7 88.8 61.3 88.8 53.4C88.8 45.5 94.3 39.1 101 39.1C107.7 39.1 113.2 45.5 113.2 53.4C113.2 61.3 107.7 67.7 101 67.7Z" fill="white"/>
</g>
<defs>
<clipPath id="clip0_293_61">
<rect width="842.8" height="137.8" fill="white"/>
</clipPath>
</defs>
</svg>
